<svg xmlns="http://www.w3.org/2000/svg" xmlns:xlink="http://www.w3.org/1999/xlink" width="500" zoomAndPan="magnify" viewBox="0 0 375 374.999991" height="500" preserveAspectRatio="xMidYMid meet" version="1.0"><defs><clipPath id="71e8ae8bdf"><path d="M 96.375 122.835938 L 278.625 122.835938 L 278.625 248 L 96.375 248 Z M 96.375 122.835938 " clip-rule="nonzero"/></clipPath><clipPath id="1f5b71bfbb"><path d="M 149 252 L 244 252 L 244 276.585938 L 149 276.585938 Z M 149 252 " clip-rule="nonzero"/></clipPath></defs><path fill="#e8ca95" d="M 75.351562 145.558594 C 75.351562 145.558594 48.851562 198.003906 64.566406 224.320312 C 80.28125 250.636719 96.648438 299.828125 139.886719 307.917969 C 183.128906 316.011719 255.941406 292.855469 278.632812 269.980469 C 301.320312 247.105469 326.148438 178.753906 277.980469 122.496094 C 229.8125 66.234375 162.019531 58.984375 75.351562 145.558594 Z M 75.351562 145.558594 " fill-opacity="1" fill-rule="nonzero"/><g clip-path="url(#71e8ae8bdf)"><path fill="#000000" d="M 277.886719 181.558594 C 279.214844 178.605469 278.921875 175.210938 277.144531 172.554688 C 275.371094 169.898438 272.410156 168.421875 269.15625 168.421875 L 214.71875 169.453125 L 220.042969 160.300781 C 220.785156 159.121094 220.785156 157.5 220.042969 156.316406 C 219.304688 155.136719 217.972656 154.25 216.496094 154.25 L 205.398438 154.25 L 205.398438 126.945312 C 205.546875 124.730469 203.625 122.957031 201.40625 122.957031 L 191.9375 122.957031 C 189.71875 122.957031 187.945312 124.730469 187.945312 126.945312 L 187.945312 154.25 L 176.847656 154.25 C 175.371094 154.25 174.039062 154.988281 173.296875 156.316406 C 172.558594 157.5 172.558594 159.121094 173.296875 160.300781 L 179.066406 170.191406 L 135.429688 171.078125 L 131.136719 144.65625 C 130.398438 140.082031 126.40625 136.832031 121.820312 136.832031 L 99.332031 136.832031 C 97.707031 136.832031 96.375 138.160156 96.375 139.785156 C 96.375 141.410156 97.707031 142.738281 99.332031 142.738281 L 121.671875 142.738281 C 123.296875 142.738281 124.777344 143.917969 125.074219 145.542969 L 140.457031 239.566406 C 141.199219 244.140625 145.191406 247.390625 149.777344 247.390625 L 242.972656 247.390625 C 246.820312 247.390625 250.074219 245.175781 251.554688 241.78125 L 265.3125 210.046875 Z M 189.867188 160.300781 C 192.085938 160.300781 193.859375 158.53125 193.859375 156.316406 L 193.859375 129.011719 L 199.480469 129.011719 L 199.480469 156.316406 C 199.480469 158.53125 201.257812 160.300781 203.476562 160.300781 L 213.238281 160.300781 L 207.027344 170.929688 C 207.027344 170.929688 207.027344 171.078125 206.878906 171.078125 L 196.671875 188.640625 L 180.25 160.300781 Z M 182.46875 176.242188 L 193.121094 194.695312 C 193.859375 195.875 195.191406 196.761719 196.671875 196.761719 C 198.152344 196.761719 199.480469 196.023438 200.222656 194.695312 L 211.316406 175.652344 L 269.15625 174.472656 C 270.339844 174.472656 271.375 175.0625 272.117188 175.949219 C 272.707031 176.980469 272.855469 178.164062 272.410156 179.195312 L 260.726562 206.058594 L 141.050781 206.058594 L 136.316406 177.128906 Z M 246.082031 239.566406 C 245.488281 240.746094 244.304688 241.632812 242.972656 241.632812 L 149.777344 241.632812 C 148.152344 241.632812 146.671875 240.453125 146.375 238.828125 L 141.9375 212.113281 L 257.914062 212.113281 Z M 246.082031 239.566406 " fill-opacity="1" fill-rule="nonzero"/></g><g clip-path="url(#1f5b71bfbb)"><path fill="#000000" d="M 231.433594 252.261719 L 162.054688 252.261719 C 155.398438 252.261719 149.925781 257.722656 149.925781 264.363281 C 149.925781 271.003906 155.398438 276.46875 162.054688 276.46875 C 168.710938 276.46875 174.1875 271.003906 174.1875 264.363281 C 174.1875 262.148438 173.59375 260.082031 172.558594 258.3125 L 221.082031 258.3125 C 220.042969 260.082031 219.453125 262.148438 219.453125 264.363281 C 219.453125 271.003906 224.925781 276.46875 231.582031 276.46875 C 238.238281 276.46875 243.714844 271.003906 243.714844 264.363281 C 243.566406 257.722656 238.09375 252.261719 231.433594 252.261719 Z M 168.121094 264.363281 C 168.121094 267.757812 165.308594 270.414062 162.054688 270.414062 C 158.800781 270.414062 155.992188 267.609375 155.992188 264.363281 C 155.992188 261.117188 158.800781 258.3125 162.054688 258.3125 C 165.308594 258.3125 168.121094 260.96875 168.121094 264.363281 Z M 231.433594 270.414062 C 228.03125 270.414062 225.371094 267.609375 225.371094 264.363281 C 225.371094 261.117188 228.179688 258.3125 231.433594 258.3125 C 234.691406 258.3125 237.5 261.117188 237.5 264.363281 C 237.5 267.609375 234.835938 270.414062 231.433594 270.414062 Z M 231.433594 270.414062 " fill-opacity="1" fill-rule="nonzero"/></g></svg>